<?xml version="1.0" encoding="utf-8"?>
<svg version="1.1" xmlns:xlink="http://www.w3.org/1999/xlink" width="17px" height="13px" xmlns="http://www.w3.org/2000/svg">
  <g transform="matrix(1 0 0 1 -241 -348 )">
    <path d="M 16.9098772321429 8.44903273809524  C 16.969959077381 8.51029265873016  17 8.5828373015873  17 8.66666666666667  L 17 10.5238095238095  C 17 10.6076388888889  16.969959077381 10.680183531746  16.9098772321429 10.741443452381  C 16.8497953869048 10.8027033730159  16.7786458333333 10.8333333333333  16.6964285714286 10.8333333333333  L 3.64285714285714 10.8333333333333  L 3.64285714285714 12.6904761904762  C 3.64285714285714 12.7743055555556  3.6128162202381 12.8468501984127  3.552734375 12.9081101190476  C 3.4926525297619 12.9693700396825  3.42150297619048 13  3.33928571428571 13  C 3.26339285714286 13  3.1875 12.9677579365079  3.11160714285714 12.9032738095238  L 0.0853794642857143 9.80803571428571  C 0.0284598214285714 9.75  0 9.67906746031746  0 9.59523809523809  C 0 9.50496031746032  0.0284598214285714 9.43080357142857  0.0853794642857143 9.37276785714286  L 3.12109375 6.27752976190476  C 3.17801339285714 6.21949404761905  3.25074404761905 6.19047619047619  3.33928571428571 6.19047619047619  C 3.42150297619048 6.19047619047619  3.4926525297619 6.22110615079365  3.552734375 6.28236607142857  C 3.6128162202381 6.34362599206349  3.64285714285714 6.41617063492063  3.64285714285714 6.5  L 3.64285714285714 8.35714285714286  L 16.6964285714286 8.35714285714286  C 16.7786458333333 8.35714285714286  16.8497953869048 8.38777281746032  16.9098772321429 8.44903273809524  Z M 16.9146205357143 3.18229166666667  C 16.9715401785714 3.24032738095238  17 3.31448412698413  17 3.4047619047619  C 17 3.49503968253968  16.9715401785714 3.56919642857143  16.9146205357143 3.62723214285714  L 13.87890625 6.72247023809524  C 13.8219866071429 6.78050595238095  13.749255952381 6.80952380952381  13.6607142857143 6.80952380952381  C 13.5784970238095 6.80952380952381  13.5073474702381 6.77889384920635  13.447265625 6.71763392857143  C 13.3871837797619 6.65637400793651  13.3571428571429 6.58382936507936  13.3571428571429 6.5  L 13.3571428571429 4.64285714285714  L 0.303571428571429 4.64285714285714  C 0.221354166666667 4.64285714285714  0.150204613095238 4.61222718253968  0.0901227678571429 4.55096726190476  C 0.0300409226190476 4.48970734126984  0 4.4171626984127  0 4.33333333333333  L 0 2.47619047619048  C 0 2.39236111111111  0.0300409226190476 2.31981646825397  0.0901227678571429 2.25855654761905  C 0.150204613095238 2.19729662698413  0.221354166666667 2.16666666666667  0.303571428571429 2.16666666666667  L 13.3571428571429 2.16666666666667  L 13.3571428571429 0.30952380952381  C 13.3571428571429 0.219246031746031  13.3856026785714 0.145089285714286  13.4425223214286 0.0870535714285718  C 13.4994419642857 0.0290178571428578  13.5721726190476 0  13.6607142857143 0  C 13.7366071428571 0  13.8125 0.0322420634920634  13.8883928571429 0.0967261904761901  L 16.9146205357143 3.18229166666667  Z " fill-rule="nonzero" fill="#000000" stroke="none" transform="matrix(1 0 0 1 241 348 )" />
  </g>
</svg>