<?xml version="1.0" encoding="utf-8"?>
<svg version="1.1" xmlns:xlink="http://www.w3.org/1999/xlink" width="210px" height="170px" xmlns="http://www.w3.org/2000/svg">
  <g transform="matrix(1 0 0 1 -57 -1793 )">
    <path d="M 57 1793  L 267 1793  L 267 1963  L 57 1963  L 57 1793  " fill-rule="nonzero" fill="#cccccc" stroke="none" />
    <path d="M 69 1805  L 255 1805  L 255 1951  L 69 1951  L 69 1805  " fill-rule="nonzero" fill="#ffffff" stroke="none" />
    <path d="M 178.95 1844  C 171.81 1844  166.2 1838.39  166.2 1831.25  C 166.2 1824.11  171.81 1818.5  178.95 1818.5  C 186.09 1818.5  191.7 1824.11  191.7 1831.25  C 191.7 1838.39  186.09 1844  178.95 1844  " fill-rule="nonzero" fill="#cccccc" stroke="none" />
    <path d="M 74 1947  L 74 1871.65  L 118.25 1837.4  L 180.2 1880.45714285714  L 215.6 1857.95  L 251 1880.45714285714  L 251 1947  L 74 1947  " fill-rule="nonzero" fill="#169bd5" stroke="none" />
  </g>
</svg>