<?xml version="1.0" encoding="utf-8"?>
<svg version="1.1" xmlns:xlink="http://www.w3.org/1999/xlink" width="41px" height="41px" xmlns="http://www.w3.org/2000/svg">
  <g transform="matrix(1 0 0 1 -625 -2431 )">
    <path d="M 25.3313802083333 25.3313802083333  C 26.666015625 23.9967447916667  27.3333333333333 22.3862847222222  27.3333333333333 20.5  C 27.3333333333333 18.6137152777778  26.666015625 17.0032552083333  25.3313802083333 15.6686197916667  C 23.9967447916667 14.333984375  22.3862847222222 13.6666666666667  20.5 13.6666666666667  C 18.6137152777778 13.6666666666667  17.0032552083333 14.333984375  15.6686197916667 15.6686197916667  C 14.333984375 17.0032552083333  13.6666666666667 18.6137152777778  13.6666666666667 20.5  C 13.6666666666667 22.3862847222222  14.333984375 23.9967447916667  15.6686197916667 25.3313802083333  C 17.0032552083333 26.666015625  18.6137152777778 27.3333333333333  20.5 27.3333333333333  C 22.3862847222222 27.3333333333333  23.9967447916667 26.666015625  25.3313802083333 25.3313802083333  Z M 27.947265625 13.052734375  C 29.9937065972222 15.0991753472222  31.0169270833333 17.5815972222222  31.0169270833333 20.5  C 31.0169270833333 23.4184027777778  29.9937065972222 25.9008246527778  27.947265625 27.947265625  C 25.9008246527778 29.9937065972222  23.4184027777778 31.0169270833333  20.5 31.0169270833333  C 17.5815972222222 31.0169270833333  15.0991753472222 29.9937065972222  13.052734375 27.947265625  C 11.0062934027778 25.9008246527778  9.98307291666667 23.4184027777778  9.98307291666667 20.5  C 9.98307291666667 17.5815972222222  11.0062934027778 15.0991753472222  13.052734375 13.052734375  C 15.0991753472222 11.0062934027778  17.5815972222222 9.98307291666667  20.5 9.98307291666667  C 23.4184027777778 9.98307291666667  25.9008246527778 11.0062934027778  27.947265625 13.052734375  Z M 33.1790364583333 7.82096354166667  C 33.6595052083333 8.30143229166667  33.8997395833333 8.87977430555555  33.8997395833333 9.55598958333333  C 33.8997395833333 10.2322048611111  33.6595052083333 10.810546875  33.1790364583333 11.291015625  C 32.6985677083333 11.771484375  32.1202256944445 12.01171875  31.4440104166667 12.01171875  C 30.7677951388889 12.01171875  30.189453125 11.771484375  29.708984375 11.291015625  C 29.228515625 10.810546875  28.98828125 10.2322048611111  28.98828125 9.55598958333333  C 28.98828125 8.87977430555555  29.228515625 8.30143229166667  29.708984375 7.82096354166667  C 30.189453125 7.34049479166667  30.7677951388889 7.10026041666667  31.4440104166667 7.10026041666667  C 32.1202256944445 7.10026041666667  32.6985677083333 7.34049479166667  33.1790364583333 7.82096354166667  Z M 22.5419921875 3.67024739583333  C 21.3052300347222 3.67914496527777  20.6245659722222 3.68359375  20.5 3.68359375  C 20.3754340277778 3.68359375  19.6947699652778 3.67914496527777  18.4580078125 3.67024739583333  C 17.2212456597222 3.66134982638888  16.2825520833333 3.66134982638888  15.6419270833333 3.67024739583333  C 15.0013020833333 3.67914496527777  14.1426866319444 3.70583767361111  13.0660807291667 3.75032552083333  C 11.9894748263889 3.79481336805555  11.0730251736111 3.8837890625  10.3167317708333 4.01725260416667  C 9.56043836805556 4.15071614583333  8.92426215277778 4.31532118055555  8.408203125 4.51106770833333  C 7.51844618055556 4.86697048611111  6.73546006944444 5.38302951388888  6.05924479166667 6.05924479166667  C 5.38302951388889 6.73546006944444  4.86697048611111 7.51844618055555  4.51106770833333 8.408203125  C 4.31532118055556 8.92426215277778  4.15071614583333 9.56043836805555  4.01725260416667 10.3167317708333  C 3.8837890625 11.0730251736111  3.79481336805556 11.9894748263889  3.75032552083333 13.0660807291667  C 3.70583767361111 14.1426866319444  3.67914496527778 15.0013020833333  3.67024739583333 15.6419270833333  C 3.66134982638889 16.2825520833333  3.66134982638889 17.2212456597222  3.67024739583333 18.4580078125  C 3.67914496527778 19.6947699652778  3.68359375 20.3754340277778  3.68359375 20.5  C 3.68359375 20.6245659722222  3.67914496527778 21.3052300347222  3.67024739583333 22.5419921875  C 3.66134982638889 23.7787543402778  3.66134982638889 24.7174479166667  3.67024739583333 25.3580729166667  C 3.67914496527778 25.9986979166667  3.70583767361111 26.8573133680556  3.75032552083333 27.9339192708333  C 3.79481336805556 29.0105251736111  3.8837890625 29.9269748263889  4.01725260416667 30.6832682291667  C 4.15071614583333 31.4395616319444  4.31532118055556 32.0757378472222  4.51106770833333 32.591796875  C 4.86697048611111 33.4815538194444  5.38302951388889 34.2645399305556  6.05924479166667 34.9407552083333  C 6.73546006944444 35.6169704861111  7.51844618055556 36.1330295138889  8.408203125 36.4889322916667  C 8.92426215277778 36.6846788194444  9.56043836805556 36.8492838541667  10.3167317708333 36.9827473958333  C 11.0730251736111 37.1162109375  11.9894748263889 37.2051866319444  13.0660807291667 37.2496744791667  C 14.1426866319444 37.2941623263889  15.0013020833333 37.3208550347222  15.6419270833333 37.3297526041667  C 16.2825520833333 37.3386501736111  17.2212456597222 37.3386501736111  18.4580078125 37.3297526041667  C 19.6947699652778 37.3208550347222  20.3754340277778 37.31640625  20.5 37.31640625  C 20.6245659722222 37.31640625  21.3052300347222 37.3208550347222  22.5419921875 37.3297526041667  C 23.7787543402778 37.3386501736111  24.7174479166667 37.3386501736111  25.3580729166667 37.3297526041667  C 25.9986979166667 37.3208550347222  26.8573133680556 37.2941623263889  27.9339192708333 37.2496744791667  C 29.0105251736111 37.2051866319444  29.9269748263889 37.1162109375  30.6832682291667 36.9827473958333  C 31.4395616319444 36.8492838541667  32.0757378472222 36.6846788194444  32.591796875 36.4889322916667  C 33.4815538194445 36.1330295138889  34.2645399305556 35.6169704861111  34.9407552083333 34.9407552083333  C 35.6169704861111 34.2645399305556  36.1330295138889 33.4815538194444  36.4889322916667 32.591796875  C 36.6846788194445 32.0757378472222  36.8492838541667 31.4395616319444  36.9827473958333 30.6832682291667  C 37.1162109375 29.9269748263889  37.2051866319445 29.0105251736111  37.2496744791667 27.9339192708333  C 37.2941623263889 26.8573133680556  37.3208550347222 25.9986979166667  37.3297526041667 25.3580729166667  C 37.3386501736111 24.7174479166667  37.3386501736111 23.7787543402778  37.3297526041667 22.5419921875  C 37.3208550347222 21.3052300347222  37.31640625 20.6245659722222  37.31640625 20.5  C 37.31640625 20.3754340277778  37.3208550347222 19.6947699652778  37.3297526041667 18.4580078125  C 37.3386501736111 17.2212456597222  37.3386501736111 16.2825520833333  37.3297526041667 15.6419270833333  C 37.3208550347222 15.0013020833333  37.2941623263889 14.1426866319444  37.2496744791667 13.0660807291667  C 37.2051866319445 11.9894748263889  37.1162109375 11.0730251736111  36.9827473958333 10.3167317708333  C 36.8492838541667 9.56043836805555  36.6846788194445 8.92426215277778  36.4889322916667 8.408203125  C 36.1330295138889 7.51844618055555  35.6169704861111 6.73546006944444  34.9407552083333 6.05924479166667  C 34.2645399305556 5.38302951388888  33.4815538194445 4.86697048611111  32.591796875 4.51106770833333  C 32.0757378472222 4.31532118055555  31.4395616319444 4.15071614583333  30.6832682291667 4.01725260416667  C 29.9269748263889 3.8837890625  29.0105251736111 3.79481336805555  27.9339192708333 3.75032552083333  C 26.8573133680556 3.70583767361111  25.9986979166667 3.67914496527777  25.3580729166667 3.67024739583333  C 24.7174479166667 3.66134982638888  23.7787543402778 3.66134982638888  22.5419921875 3.67024739583333  Z M 40.8665364583333 12.0384114583333  C 40.9555121527778 13.6043836805556  41 16.4249131944444  41 20.5  C 41 24.5750868055556  40.9555121527778 27.3956163194444  40.8665364583333 28.9615885416667  C 40.6885850694445 32.6629774305556  39.5852864583333 35.5279947916667  37.556640625 37.556640625  C 35.5279947916667 39.5852864583333  32.6629774305556 40.6885850694444  28.9615885416667 40.8665364583333  C 27.3956163194444 40.9555121527778  24.5750868055556 41  20.5 41  C 16.4249131944444 41  13.6043836805556 40.9555121527778  12.0384114583333 40.8665364583333  C 8.33702256944445 40.6885850694444  5.47200520833333 39.5852864583333  3.443359375 37.556640625  C 1.41471354166667 35.5279947916667  0.311414930555556 32.6629774305556  0.133463541666667 28.9615885416667  C 0.0444878472222222 27.3956163194444  0 24.5750868055556  0 20.5  C 0 16.4249131944444  0.0444878472222222 13.6043836805556  0.133463541666667 12.0384114583333  C 0.311414930555556 8.33702256944444  1.41471354166667 5.47200520833333  3.443359375 3.443359375  C 5.47200520833333 1.41471354166667  8.33702256944445 0.311414930555553  12.0384114583333 0.133463541666668  C 13.6043836805556 0.0444878472222167  16.4249131944444 0  20.5 0  C 24.5750868055556 0  27.3956163194444 0.0444878472222167  28.9615885416667 0.133463541666668  C 32.6629774305556 0.311414930555553  35.5279947916667 1.41471354166667  37.556640625 3.443359375  C 39.5852864583333 5.47200520833333  40.6885850694445 8.33702256944444  40.8665364583333 12.0384114583333  Z " fill-rule="nonzero" fill="#000000" stroke="none" transform="matrix(1 0 0 1 625 2431 )" />
  </g>
</svg>