<?xml version="1.0" encoding="utf-8"?>
<svg version="1.1" xmlns:xlink="http://www.w3.org/1999/xlink" width="41px" height="41px" xmlns="http://www.w3.org/2000/svg">
  <g transform="matrix(1 0 0 1 -708 -2431 )">
    <path d="M 7.6875 0  L 33.3125 0  C 35.4301215277778 0  37.2407769097222 0.751844618055553  38.7444661458333 2.25553385416667  C 40.2481553819444 3.75922309027777  41 5.56987847222222  41 7.6875  L 41 33.3125  C 41 35.4301215277778  40.2481553819444 37.2407769097222  38.7444661458333 38.7444661458333  C 37.2407769097222 40.2481553819444  35.4301215277778 41  33.3125 41  L 28 41  L 28 25.1178385416667  L 33.6061197916667 25.1178385416667  L 34.4069010416667 18.9251302083333  L 28.2942708333333 18.9251302083333  L 28.2942708333333 14.974609375  C 28.2942708333333 13.9780815972222  28.5033637152778 13.2306857638889  28.9215494791667 12.732421875  C 29.3397352430556 12.2341579861111  30.1538628472222 11.9850260416667  31.3639322916667 11.9850260416667  L 34.6204427083333 11.9583333333333  L 34.6204427083333 6.43294270833333  C 33.4993489583333 6.27278645833333  31.9155815972222 6.19270833333333  29.869140625 6.19270833333333  C 27.4490017361111 6.19270833333333  25.5137803819444 6.90451388888888  24.0634765625 8.328125  C 22.6131727430556 9.75173611111111  21.8880208333333 11.7625868055556  21.8880208333333 14.3606770833333  L 21.8880208333333 18.9251302083333  L 16.5494791666667 18.9251302083333  L 16.5494791666667 25.1178385416667  L 21.8880208333333 25.1178385416667  L 21.8880208333333 41  L 7.6875 41  C 5.56987847222222 41  3.75922309027778 40.2481553819444  2.25553385416667 38.7444661458333  C 0.751844618055555 37.2407769097222  0 35.4301215277778  0 33.3125  L 0 7.6875  C 0 5.56987847222222  0.751844618055555 3.75922309027777  2.25553385416667 2.25553385416667  C 3.75922309027778 0.751844618055553  5.56987847222222 0  7.6875 0  Z " fill-rule="nonzero" fill="#000000" stroke="none" transform="matrix(1 0 0 1 708 2431 )" />
  </g>
</svg>