<?xml version="1.0" encoding="utf-8"?>
<svg version="1.1" xmlns:xlink="http://www.w3.org/1999/xlink" width="41px" height="41px" xmlns="http://www.w3.org/2000/svg">
  <g transform="matrix(1 0 0 1 -792 -2431 )">
    <path d="M 7 15.8020833333333  L 7 34.3268229166667  L 13 34.3268229166667  L 13 15.8020833333333  L 7 15.8020833333333  Z M 11.931640625 12.3720703125  C 12.572265625 11.7581380208333  12.892578125 10.9973958333333  12.892578125 10.08984375  C 12.8747829861111 9.16449652777778  12.5544704861111 8.39930555555555  11.931640625 7.79427083333333  C 11.3088107638889 7.18923611111111  10.4813368055556 6.88671875  9.44921875 6.88671875  C 8.41710069444445 6.88671875  7.57628038194445 7.18923611111111  6.9267578125 7.79427083333333  C 6.27723524305556 8.39930555555555  5.95247395833333 9.16449652777778  5.95247395833333 10.08984375  C 5.95247395833333 10.9973958333333  6.26833767361111 11.7581380208333  6.90006510416667 12.3720703125  C 7.53179253472222 12.9860026041667  8.35481770833333 13.29296875  9.369140625 13.29296875  L 9.39583333333333 13.29296875  C 10.4457465277778 13.29296875  11.291015625 12.9860026041667  11.931640625 12.3720703125  Z M 28.5078125 24.423828125  L 28.5078125 34.3268229166667  L 34 34.3268229166667  L 34 23.703125  C 34.673828125 20.9626736111111  34.0243055555556 18.8895399305556  32.7252604166667 17.4837239583333  C 31.4262152777778 16.0779079861111  29.708984375 15.375  27.5735677083333 15.375  C 25.1534288194444 15.375  23.2938368055556 16.416015625  21.9947916666667 18.498046875  L 22.0481770833333 18.498046875  L 22.0481770833333 15.8020833333333  L 15.8821614583333 15.8020833333333  C 15.935546875 16.9765625  15.935546875 23.1514756944444  15.8821614583333 34.3268229166667  L 22 34.3268229166667  L 22 23.9700520833333  C 22.0481770833333 23.2938368055556  22.1104600694444 22.7955729166667  22.2350260416667 22.4752604166667  C 22.501953125 21.8524305555556  22.90234375 21.3230251736111  23.4361979166667 20.8870442708333  C 23.9700520833333 20.4510633680556  24.6284722222222 20.2330729166667  25.4114583333333 20.2330729166667  C 27.4756944444444 20.2330729166667  28.5078125 21.6299913194444  28.5078125 24.423828125  Z M 38.7444661458333 2.25553385416667  C 40.2481553819444 3.75922309027777  41 5.56987847222222  41 7.6875  L 41 33.3125  C 41 35.4301215277778  40.2481553819444 37.2407769097222  38.7444661458333 38.7444661458333  C 37.2407769097222 40.2481553819444  35.4301215277778 41  33.3125 41  L 7.6875 41  C 5.56987847222222 41  3.75922309027778 40.2481553819444  2.25553385416667 38.7444661458333  C 0.751844618055555 37.2407769097222  0 35.4301215277778  0 33.3125  L 0 7.6875  C 0 5.56987847222222  0.751844618055555 3.75922309027777  2.25553385416667 2.25553385416667  C 3.75922309027778 0.751844618055553  5.56987847222222 0  7.6875 0  L 33.3125 0  C 35.4301215277778 0  37.2407769097222 0.751844618055553  38.7444661458333 2.25553385416667  Z " fill-rule="nonzero" fill="#000000" stroke="none" transform="matrix(1 0 0 1 792 2431 )" />
  </g>
</svg>