<?xml version="1.0" encoding="utf-8"?>
<svg version="1.1" xmlns:xlink="http://www.w3.org/1999/xlink" width="41px" height="41px" xmlns="http://www.w3.org/2000/svg">
  <g transform="matrix(1 0 0 1 -875 -2431 )">
    <path d="M 23.7565104166667 32.671875  C 24.2725694444444 32.671875  24.5305989583333 32.2358940972222  24.5305989583333 31.3639322916667  L 24.5305989583333 27.1731770833333  C 24.5305989583333 26.2834201388889  24.2725694444444 25.8385416666667  23.7565104166667 25.8385416666667  C 23.4539930555556 25.8385416666667  23.1603732638889 25.9809027777778  22.8756510416667 26.265625  L 22.8756510416667 32.2447916666667  C 23.1603732638889 32.5295138888889  23.4539930555556 32.671875  23.7565104166667 32.671875  Z M 29.4420572916667 27.1998697916667  L 29.4420572916667 28.107421875  L 31.2037760416667 28.107421875  L 31.2037760416667 27.1998697916667  C 31.2037760416667 26.2923177083333  30.91015625 25.8385416666667  30.3229166666667 25.8385416666667  C 29.7356770833333 25.8385416666667  29.4420572916667 26.2923177083333  29.4420572916667 27.1998697916667  Z M 8.0078125 21.0071614583333  L 14.2005208333333 21.0071614583333  L 14.2005208333333 22.8756510416667  L 12 22.8756510416667  L 12 34.1666666666667  L 10 34.1666666666667  L 10 22.8756510416667  L 8.0078125 22.8756510416667  L 8.0078125 21.0071614583333  Z M 17.77734375 24.3704427083333  L 19.5657552083333 24.3704427083333  L 19.5657552083333 34.1666666666667  L 17.77734375 34.1666666666667  L 17.77734375 33.0989583333333  C 17.0833333333333 33.8997395833333  16.4071180555556 34.3001302083333  15.7486979166667 34.3001302083333  C 15.1614583333333 34.3001302083333  14.7877604166667 34.0509982638889  14.6276041666667 33.552734375  C 14.5208333333333 33.2502170138889  14.4674479166667 32.7697482638889  14.4674479166667 32.111328125  L 14.4674479166667 24.3704427083333  L 16.2291666666667 24.3704427083333  L 16.2291666666667 31.5774739583333  C 16.2291666666667 32.0045572916667  16.2380642361111 32.2358940972222  16.255859375 32.271484375  C 16.2736545138889 32.5384114583333  16.4071180555556 32.671875  16.65625 32.671875  C 17.0121527777778 32.671875  17.3858506944444 32.3960503472222  17.77734375 31.8444010416667  L 17.77734375 24.3704427083333  Z M 26.10546875 25.3580729166667  C 26.2300347222222 25.7317708333333  26.2923177083333 26.3901909722222  26.2923177083333 27.3333333333333  L 26.2923177083333 31.23046875  C 26.2923177083333 32.1558159722222  26.2300347222222 32.8053385416667  26.10546875 33.1790364583333  C 25.8919270833333 33.9264322916667  25.4203559027778 34.3001302083333  24.6907552083333 34.3001302083333  C 24.0679253472222 34.3001302083333  23.462890625 33.9353298611111  22.8756510416667 33.2057291666667  L 22.8756510416667 34.1666666666667  L 21 34.1666666666667  L 21 21.0071614583333  L 22.8756510416667 21.0071614583333  L 22.8756510416667 25.3046875  C 23.4450954861111 24.5928819444444  24.0501302083333 24.2369791666667  24.6907552083333 24.2369791666667  C 25.4203559027778 24.2369791666667  25.8919270833333 24.6106770833333  26.10546875 25.3580729166667  Z M 31.1770833333333 30.7766927083333  L 32.9921875 30.7766927083333  L 32.9921875 31.0169270833333  C 32.9921875 31.5329861111111  32.9743923611111 31.9155815972222  32.9388020833333 32.1647135416667  C 32.8854166666667 32.5562065972222  32.751953125 32.912109375  32.5384114583333 33.232421875  C 32.0579427083333 33.9442274305556  31.3461371527778 34.3001302083333  30.4029947916667 34.3001302083333  C 29.4776475694444 34.3001302083333  28.7569444444444 33.9620225694444  28.2408854166667 33.2858072916667  C 27.8671875 32.8053385416667  27.6803385416667 32.0401475694444  27.6803385416667 30.990234375  L 27.6803385416667 27.546875  C 27.6803385416667 26.4969618055556  27.8582899305556 25.7317708333333  28.2141927083333 25.2513020833333  C 28.7302517361111 24.5750868055556  29.4420572916667 24.2369791666667  30.349609375 24.2369791666667  C 31.2571614583333 24.2369791666667  31.951171875 24.5750868055556  32.431640625 25.2513020833333  C 32.8053385416667 25.7673611111111  32.9921875 26.5325520833333  32.9921875 27.546875  L 32.9921875 29.5755208333333  L 29.4420572916667 29.5755208333333  L 29.4420572916667 31.310546875  C 29.4420572916667 32.2180989583333  29.7445746527778 32.671875  30.349609375 32.671875  C 30.7766927083333 32.671875  31.0436197916667 32.4405381944444  31.150390625 31.9778645833333  C 31.150390625 31.9600694444444  31.1548394097222 31.8977864583333  31.1637369791667 31.791015625  C 31.1726345486111 31.6842447916667  31.1770833333333 31.5374348958333  31.1770833333333 31.3505859375  L 31.1770833333333 30.7766927083333  Z M 20.099609375 7.39388020833333  C 20.6690538194444 7.39388020833333  20.9537760416667 7.85655381944444  20.9537760416667 8.78190104166667  L 20.9537760416667 12.9459635416667  C 20.9537760416667 13.853515625  20.6690538194444 14.3072916666667  20.099609375 14.3072916666667  C 19.5301649305556 14.3072916666667  19.2454427083333 13.853515625  19.2454427083333 12.9459635416667  L 19.2454427083333 8.78190104166667  C 19.2454427083333 7.85655381944444  19.5301649305556 7.39388020833333  20.099609375 7.39388020833333  Z M 34.6471354166667 34.75390625  C 35.0030381944445 33.2591145833333  35.1809895833333 30.9457465277778  35.1809895833333 27.8138020833333  C 35.1809895833333 24.6640625  35.0119357638889 22.3506944444444  34.673828125 20.8736979166667  C 34.4958767361111 20.0907118055556  34.11328125 19.4367404513889  33.5260416666667 18.9117838541667  C 32.9388020833333 18.3868272569444  32.2625868055556 18.0798611111111  31.4973958333333 17.9908854166667  C 29.0772569444444 17.7239583333333  25.4114583333333 17.5904947916667  20.5 17.5904947916667  C 15.6063368055556 17.5904947916667  11.9494357638889 17.7239583333333  9.529296875 17.9908854166667  C 8.74631076388889 18.0798611111111  8.06564670138889 18.3868272569444  7.4873046875 18.9117838541667  C 6.90896267361111 19.4367404513889  6.53081597222222 20.0907118055556  6.35286458333333 20.8736979166667  C 5.99696180555556 22.421875  5.81901041666667 24.7352430555556  5.81901041666667 27.8138020833333  C 5.81901041666667 30.9457465277778  5.99696180555556 33.2591145833333  6.35286458333333 34.75390625  C 6.53081597222222 35.5190972222222  6.90896267361111 36.1686197916667  7.4873046875 36.7024739583333  C 8.06564670138889 37.236328125  8.73741319444445 37.5477430555556  9.50260416666667 37.63671875  C 11.9405381944444 37.9036458333333  15.6063368055556 38.037109375  20.5 38.037109375  C 25.3936631944444 38.037109375  29.0594618055556 37.9036458333333  31.4973958333333 37.63671875  C 32.2625868055556 37.5477430555556  32.9343532986111 37.236328125  33.5126953125 36.7024739583333  C 34.0910373263889 36.1686197916667  34.4691840277778 35.5190972222222  34.6471354166667 34.75390625  Z M 15.0279947916667 15.8020833333333  L 15.0279947916667 10.4368489583333  L 17.4303385416667 2.53580729166667  L 15.4283854166667 2.53580729166667  L 14.0670572916667 7.74088541666667  L 12.65234375 2.53580729166667  L 10.5703125 2.53580729166667  C 10.6948784722222 2.94509548611111  10.8995225694444 3.55902777777777  11.1842447916667 4.37760416666667  L 11.8248697916667 6.21940104166667  C 12.4476996527778 8.05230034722222  12.8569878472222 9.45811631944444  13.052734375 10.4368489583333  L 13.052734375 15.8020833333333  L 15.0279947916667 15.8020833333333  Z M 22.181640625 14.9212239583333  C 22.5553385416667 14.4407552083333  22.7421875 13.6666666666667  22.7421875 12.5989583333333  L 22.7421875 9.12890625  C 22.7421875 8.09678819444444  22.5553385416667 7.32269965277777  22.181640625 6.806640625  C 21.6655815972222 6.13042534722222  20.9715711805556 5.79231770833333  20.099609375 5.79231770833333  C 19.1920572916667 5.79231770833333  18.498046875 6.13042534722222  18.017578125 6.806640625  C 17.6438802083333 7.32269965277777  17.45703125 8.09678819444444  17.45703125 9.12890625  L 17.45703125 12.5989583333333  C 17.45703125 13.6310763888889  17.6438802083333 14.4051649305556  18.017578125 14.9212239583333  C 18.498046875 15.5974392361111  19.1920572916667 15.935546875  20.099609375 15.935546875  C 20.9715711805556 15.935546875  21.6655815972222 15.5974392361111  22.181640625 14.9212239583333  Z M 27.5735677083333 14.734375  L 27.5735677083333 15.8020833333333  L 29.3619791666667 15.8020833333333  L 29.3619791666667 5.92578125  L 27.5735677083333 5.92578125  L 27.5735677083333 13.4798177083333  C 27.1820746527778 14.0314670138889  26.8083767361111 14.3072916666667  26.4524739583333 14.3072916666667  C 26.185546875 14.3072916666667  26.0431857638889 14.1649305555556  26.025390625 13.8802083333333  C 26.0075954861111 13.8446180555556  25.9986979166667 13.61328125  25.9986979166667 13.1861979166667  L 25.9986979166667 5.92578125  L 24.2102864583333 5.92578125  L 24.2102864583333 13.7467447916667  C 24.2102864583333 14.4051649305556  24.263671875 14.89453125  24.3704427083333 15.21484375  C 24.5661892361111 15.6953125  24.9487847222222 15.935546875  25.5182291666667 15.935546875  C 26.1588541666667 15.935546875  26.8439670138889 15.53515625  27.5735677083333 14.734375  Z M 38.7444661458333 2.25553385416667  C 40.2481553819444 3.75922309027777  41 5.56987847222222  41 7.6875  L 41 33.3125  C 41 35.4301215277778  40.2481553819444 37.2407769097222  38.7444661458333 38.7444661458333  C 37.2407769097222 40.2481553819444  35.4301215277778 41  33.3125 41  L 7.6875 41  C 5.56987847222222 41  3.75922309027778 40.2481553819444  2.25553385416667 38.7444661458333  C 0.751844618055555 37.2407769097222  0 35.4301215277778  0 33.3125  L 0 7.6875  C 0 5.56987847222222  0.751844618055555 3.75922309027777  2.25553385416667 2.25553385416667  C 3.75922309027778 0.751844618055553  5.56987847222222 0  7.6875 0  L 33.3125 0  C 35.4301215277778 0  37.2407769097222 0.751844618055553  38.7444661458333 2.25553385416667  Z " fill-rule="nonzero" fill="#000000" stroke="none" transform="matrix(1 0 0 1 875 2431 )" />
  </g>
</svg>