<?xml version="1.0" encoding="utf-8"?>
<svg version="1.1" xmlns:xlink="http://www.w3.org/1999/xlink" width="41px" height="41px" xmlns="http://www.w3.org/2000/svg">
  <g transform="matrix(1 0 0 1 -958 -2431 )">
    <path d="M 31.3639322916667 15.775390625  C 32.4850260416667 14.974609375  33.4192708333333 14.0047743055556  34.1666666666667 12.8658854166667  C 33.1701388888889 13.3107638888889  32.0935329861111 13.61328125  30.9368489583333 13.7734375  C 32.1469184027778 13.0616319444444  32.9743923611111 12.0206163194444  33.4192708333333 10.650390625  C 32.2625868055556 11.3266059027778  31.0703125 11.7803819444444  29.8424479166667 12.01171875  C 28.7569444444444 10.8372395833333  27.3956163194444 10.25  25.7584635416667 10.25  C 24.2102864583333 10.25  22.8889973958333 10.7972005208333  21.7945963541667 11.8916015625  C 20.7001953125 12.9860026041667  20.1529947916667 14.3072916666667  20.1529947916667 15.85546875  C 20.1529947916667 16.3715277777778  20.1974826388889 16.7986111111111  20.2864583333333 17.13671875  C 17.9908854166667 17.0121527777778  15.8376736111111 16.4338107638889  13.8268229166667 15.4016927083333  C 11.8159722222222 14.3695746527778  10.1076388888889 12.9904513888889  8.70182291666667 11.2643229166667  C 8.18576388888889 12.1540798611111  7.927734375 13.0972222222222  7.927734375 14.09375  C 7.927734375 16.1223958333333  8.73741319444445 17.6794704861111  10.3567708333333 18.7649739583333  C 9.52039930555556 18.7471788194444  8.63064236111111 18.5158420138889  7.6875 18.0709635416667  L 7.6875 18.1243489583333  C 7.6875 19.458984375  8.13237847222222 20.6468098958333  9.02213541666667 21.6878255208333  C 9.91189236111111 22.7288411458333  11.0062934027778 23.3739149305556  12.3053385416667 23.623046875  C 11.7892795138889 23.7654079861111  11.3355034722222 23.8365885416667  10.9440104166667 23.8365885416667  C 10.7126736111111 23.8365885416667  10.3656684027778 23.8009982638889  9.90299479166667 23.7298177083333  C 10.2766927083333 24.8509114583333  10.9395616319444 25.7762586805556  11.8916015625 26.505859375  C 12.8436414930556 27.2354600694444  13.9246961805556 27.6091579861111  15.134765625 27.626953125  C 13.0705295138889 29.228515625  10.7482638888889 30.029296875  8.16796875 30.029296875  C 7.70529513888889 30.029296875  7.26041666666667 30.0026041666667  6.83333333333333 29.94921875  C 9.46701388888889 31.6219618055556  12.33203125 32.4583333333333  15.4283854166667 32.4583333333333  C 17.4214409722222 32.4583333333333  19.2899305555556 32.1424696180556  21.0338541666667 31.5107421875  C 22.7777777777778 30.8790147569444  24.2725694444444 30.0337456597222  25.5182291666667 28.9749348958333  C 26.7638888888889 27.9161241319444  27.8360460069444 26.6971571180556  28.7347005208333 25.3180338541667  C 29.6333550347222 23.9389105902778  30.3006727430556 22.4975043402778  30.7366536458333 20.9938151041667  C 31.1726345486111 19.4901258680556  31.390625 17.9908854166667  31.390625 16.49609375  C 31.390625 16.17578125  31.3817274305556 15.935546875  31.3639322916667 15.775390625  Z M 38.7444661458333 2.25553385416667  C 40.2481553819444 3.75922309027777  41 5.56987847222222  41 7.6875  L 41 33.3125  C 41 35.4301215277778  40.2481553819444 37.2407769097222  38.7444661458333 38.7444661458333  C 37.2407769097222 40.2481553819444  35.4301215277778 41  33.3125 41  L 7.6875 41  C 5.56987847222222 41  3.75922309027778 40.2481553819444  2.25553385416667 38.7444661458333  C 0.751844618055555 37.2407769097222  0 35.4301215277778  0 33.3125  L 0 7.6875  C 0 5.56987847222222  0.751844618055555 3.75922309027777  2.25553385416667 2.25553385416667  C 3.75922309027778 0.751844618055553  5.56987847222222 0  7.6875 0  L 33.3125 0  C 35.4301215277778 0  37.2407769097222 0.751844618055553  38.7444661458333 2.25553385416667  Z " fill-rule="nonzero" fill="#000000" stroke="none" transform="matrix(1 0 0 1 958 2431 )" />
  </g>
</svg>