<?xml version="1.0" encoding="utf-8"?>
<svg version="1.1" xmlns:xlink="http://www.w3.org/1999/xlink" width="29px" height="29px" xmlns="http://www.w3.org/2000/svg">
  <g transform="matrix(1 0 0 1 -718 -16 )">
    <path d="M 8.86830357142857 1.14899553571429  C 10.6592261904762 0.382998511904762  12.5364583333333 0  14.5 0  C 16.4635416666667 0  18.3407738095238 0.382998511904762  20.1316964285714 1.14899553571429  C 21.9226190476191 1.91499255952381  23.4654017857143 2.9453125  24.7600446428571 4.23995535714286  C 26.0546875 5.53459821428571  27.0850074404762 7.07738095238095  27.8510044642857 8.86830357142857  C 28.6170014880952 10.6592261904762  29 12.5364583333333  29 14.5  C 29 16.4527529761905  28.6196986607143 18.3245907738095  27.8590959821429 20.1155133928571  C 27.0984933035714 21.9064360119048  26.0708705357143 23.44921875  24.7762276785714 24.7438616071429  C 23.4815848214286 26.0385044642857  21.9388020833333 27.0715215773809  20.1478794642857 27.8429129464286  C 18.3569568452381 28.6143043154762  16.4743303571429 29  14.5 29  C 12.5256696428571 29  10.6430431547619 28.6170014880952  8.85212053571428 27.8510044642857  C 7.06119791666667 27.0850074404762  5.52111235119048 26.0519903273809  4.23186383928571 24.751953125  C 2.94261532738095 23.451915922619  1.91499255952381 21.9091331845238  1.14899553571429 20.1236049107143  C 0.382998511904762 18.3380766369048  0 16.4635416666667  0 14.5  C 0 12.5364583333333  0.382998511904762 10.6592261904762  1.14899553571429 8.86830357142857  C 1.91499255952381 7.07738095238095  2.9453125 5.53459821428571  4.23995535714286 4.23995535714286  C 5.53459821428571 2.9453125  7.07738095238095 1.91499255952381  8.86830357142857 1.14899553571429  Z M 19.5652901785714 16.5714285714286  C 22.1545758928571 16.5714285714286  23.8052455357143 18.3353794642857  24.5172991071429 21.86328125  C 26.1248139880952 19.651599702381  26.9285714285714 17.1971726190476  26.9285714285714 14.5  C 26.9285714285714 12.8169642857143  26.5995163690476 11.2094494047619  25.94140625 9.67745535714286  C 25.2832961309524 8.14546130952381  24.3986235119048 6.82384672619047  23.2873883928571 5.71261160714286  C 22.1761532738095 4.60137648809524  20.8545386904762 3.71670386904762  19.3225446428571 3.05859375  C 17.7905505952381 2.40048363095238  16.1830357142857 2.07142857142857  14.5 2.07142857142857  C 12.8169642857143 2.07142857142857  11.2094494047619 2.40048363095238  9.67745535714286 3.05859375  C 8.14546130952381 3.71670386904762  6.82384672619048 4.60137648809524  5.71261160714286 5.71261160714286  C 4.60137648809524 6.82384672619047  3.71670386904762 8.14546130952381  3.05859375 9.67745535714286  C 2.40048363095238 11.2094494047619  2.07142857142857 12.8169642857143  2.07142857142857 14.5  C 2.07142857142857 17.1971726190476  2.87518601190476 19.651599702381  4.48270089285714 21.86328125  C 5.19475446428571 18.3353794642857  6.84542410714286 16.5714285714286  9.43470982142857 16.5714285714286  C 10.8480282738095 17.952380952381  12.5364583333333 18.6428571428571  14.5 18.6428571428571  C 16.4635416666667 18.6428571428571  18.1519717261905 17.952380952381  19.5652901785714 16.5714285714286  Z M 18.8936941964286 15.7865513392857  C 20.107421875 14.5728236607143  20.7142857142857 13.1082589285714  20.7142857142857 11.3928571428571  C 20.7142857142857 9.67745535714286  20.107421875 8.212890625  18.8936941964286 6.99916294642857  C 17.6799665178571 5.78543526785714  16.2154017857143 5.17857142857143  14.5 5.17857142857143  C 12.7845982142857 5.17857142857143  11.3200334821429 5.78543526785714  10.1063058035714 6.99916294642857  C 8.892578125 8.212890625  8.28571428571428 9.67745535714286  8.28571428571428 11.3928571428571  C 8.28571428571428 13.1082589285714  8.892578125 14.5728236607143  10.1063058035714 15.7865513392857  C 11.3200334821429 17.0002790178571  12.7845982142857 17.6071428571429  14.5 17.6071428571429  C 16.2154017857143 17.6071428571429  17.6799665178571 17.0002790178571  18.8936941964286 15.7865513392857  Z " fill-rule="nonzero" fill="#ffffff" stroke="none" transform="matrix(1 0 0 1 718 16 )" />
  </g>
</svg>