<?xml version="1.0" encoding="utf-8"?>
<svg version="1.1" xmlns:xlink="http://www.w3.org/1999/xlink" width="12px" height="12px" viewBox="20 383.5  12 12" xmlns="http://www.w3.org/2000/svg">
  <path d="M 26 383.5  C 29.36 383.5  32 386.14  32 389.5  C 32 392.86  29.36 395.5  26 395.5  C 22.64 395.5  20 392.86  20 389.5  C 20 386.14  22.64 383.5  26 383.5  Z " fill-rule="nonzero" fill="#ffffff" stroke="none" />
  <path d="M 26 384  C 29.08 384  31.5 386.42  31.5 389.5  C 31.5 392.58  29.08 395  26 395  C 22.92 395  20.5 392.58  20.5 389.5  C 20.5 386.42  22.92 384  26 384  Z " stroke-width="1" stroke="#797979" fill="none" />
  <path d="M 26 392.5  C 24.32 392.5  23 391.18  23 389.5  C 23 387.82  24.32 386.5  26 386.5  C 27.68 386.5  29 387.82  29 389.5  C 29 391.18  27.68 392.5  26 392.5  " fill-rule="nonzero" fill="#797979" stroke="none" />
</svg>