<?xml version="1.0" encoding="utf-8"?>
<svg version="1.1" xmlns:xlink="http://www.w3.org/1999/xlink" width="12px" height="12px" viewBox="142 383.5  12 12" xmlns="http://www.w3.org/2000/svg">
  <path d="M 148 383.5  C 151.36 383.5  154 386.14  154 389.5  C 154 392.86  151.36 395.5  148 395.5  C 144.64 395.5  142 392.86  142 389.5  C 142 386.14  144.64 383.5  148 383.5  Z " fill-rule="nonzero" fill="#ffffff" stroke="none" />
  <path d="M 148 384  C 151.08 384  153.5 386.42  153.5 389.5  C 153.5 392.58  151.08 395  148 395  C 144.92 395  142.5 392.58  142.5 389.5  C 142.5 386.42  144.92 384  148 384  Z " stroke-width="1" stroke="#797979" fill="none" />
  <path d="M 148 392.5  C 146.32 392.5  145 391.18  145 389.5  C 145 387.82  146.32 386.5  148 386.5  C 149.68 386.5  151 387.82  151 389.5  C 151 391.18  149.68 392.5  148 392.5  " fill-rule="nonzero" fill="#797979" stroke="none" />
</svg>