<?xml version="1.0" encoding="utf-8"?>
<svg version="1.1" xmlns:xlink="http://www.w3.org/1999/xlink" width="21px" height="16px" xmlns="http://www.w3.org/2000/svg">
  <g transform="matrix(1 0 0 1 -374 -445 )">
    <path d="M 20.888671875 10.3988095238095  C 20.962890625 10.4742063492063  21 10.5634920634921  21 10.6666666666667  L 21 12.952380952381  C 21 13.0555555555556  20.962890625 13.1448412698413  20.888671875 13.2202380952381  C 20.814453125 13.2956349206349  20.7265625 13.3333333333333  20.625 13.3333333333333  L 4.5 13.3333333333333  L 4.5 15.6190476190476  C 4.5 15.7222222222222  4.462890625 15.8115079365079  4.388671875 15.8869047619048  C 4.314453125 15.9623015873016  4.2265625 16  4.125 16  C 4.03125 16  3.9375 15.9603174603175  3.84375 15.8809523809524  L 0.10546875 12.0714285714286  C 0.03515625 12  0 11.9126984126984  0 11.8095238095238  C 0 11.6984126984127  0.03515625 11.6071428571429  0.10546875 11.5357142857143  L 3.85546875 7.72619047619048  C 3.92578125 7.65476190476191  4.015625 7.61904761904762  4.125 7.61904761904762  C 4.2265625 7.61904761904762  4.314453125 7.65674603174603  4.388671875 7.73214285714286  C 4.462890625 7.80753968253968  4.5 7.8968253968254  4.5 8  L 4.5 10  L 20.625 10  C 20.7265625 10.2857142857143  20.814453125 10.3234126984127  20.888671875 10.3988095238095  Z M 20.89453125 3.91666666666667  C 20.96484375 3.98809523809524  21 4.07936507936508  21 4.19047619047619  C 21 4.3015873015873  20.96484375 4.39285714285714  20.89453125 4.46428571428571  L 17.14453125 8.27380952380952  C 17.07421875 8.34523809523809  16.984375 8.38095238095238  16.875 8.38095238095238  C 16.7734375 8.38095238095238  16.685546875 8.34325396825397  16.611328125 8.26785714285714  C 16.537109375 8.19246031746032  16.5 8.1031746031746  16.5 8  L 16.5 6  L 0.375 6  C 0.2734375 5.71428571428571  0.185546875 5.6765873015873  0.111328125 5.60119047619048  C 0.037109375 5.52579365079365  0 5.43650793650794  0 5.33333333333333  L 0 3.04761904761905  C 0 2.94444444444444  0.037109375 2.85515873015873  0.111328125 2.77976190476191  C 0.185546875 2.70436507936508  0.2734375 2.66666666666667  0.375 2.66666666666667  L 16.5 2.66666666666667  L 16.5 0.380952380952381  C 16.5 0.269841269841269  16.53515625 0.178571428571429  16.60546875 0.107142857142858  C 16.67578125 0.0357142857142865  16.765625 0  16.875 0  C 16.96875 0  17.0625 0.0396825396825395  17.15625 0.119047619047619  L 20.89453125 3.91666666666667  Z " fill-rule="nonzero" fill="#000000" stroke="none" transform="matrix(1 0 0 1 374 445 )" />
  </g>
</svg>