<?xml version="1.0" encoding="utf-8"?>
<svg version="1.1" xmlns:xlink="http://www.w3.org/1999/xlink" width="324px" height="262px" xmlns="http://www.w3.org/2000/svg">
  <g transform="matrix(1 0 0 1 -31 -3227 )">
    <path d="M 31 3227  L 355 3227  L 355 3489  L 31 3489  L 31 3227  " fill-rule="nonzero" fill="#cccccc" stroke="none" />
    <path d="M 49 3245  L 337 3245  L 337 3471  L 49 3471  L 49 3245  " fill-rule="nonzero" fill="#ffffff" stroke="none" />
    <path d="M 219.13 3305.6  C 208.126 3305.6  199.48 3296.954  199.48 3285.95  C 199.48 3274.946  208.126 3266.3  219.13 3266.3  C 230.134 3266.3  238.78 3274.946  238.78 3285.95  C 238.78 3296.954  230.134 3305.6  219.13 3305.6  " fill-rule="nonzero" fill="#cccccc" stroke="none" />
    <path d="M 56 3465  L 56 3347.85  L 124.75 3294.6  L 221 3361.65555555556  L 276 3326.55  L 331 3361.65555555556  L 331 3465  L 56 3465  " fill-rule="nonzero" fill="#169bd5" stroke="none" />
  </g>
</svg>