<?xml version="1.0" encoding="utf-8"?>
<svg version="1.1" xmlns:xlink="http://www.w3.org/1999/xlink" width="21px" height="13px" xmlns="http://www.w3.org/2000/svg">
  <g transform="matrix(1 0 0 1 -14 -23 )">
    <path d="M 20.740234375 10.59296875  C 20.9134114583333 10.7216145833333  21 10.8739583333333  21 11.05  L 21 12.35  C 21 12.5260416666667  20.9134114583333 12.6783854166667  20.740234375 12.80703125  C 20.5670572916667 12.9356770833333  20.3619791666667 13  20.125 13  L 0.875 13  C 0.638020833333333 13  0.432942708333333 12.9356770833333  0.259765625 12.80703125  C 0.0865885416666667 12.6783854166667  0 12.5260416666667  0 12.35  L 0 11.05  C 0 10.8739583333333  0.0865885416666667 10.7216145833333  0.259765625 10.59296875  C 0.432942708333333 10.4643229166667  0.638020833333333 10.4  0.875 10.4  L 20.125 10.4  C 20.3619791666667 10.4  20.5670572916667 10.4643229166667  20.740234375 10.59296875  Z M 20.740234375 5.39296875  C 20.9134114583333 5.52161458333333  21 5.67395833333333  21 5.85  L 21 7.15  C 21 7.32604166666667  20.9134114583333 7.47838541666667  20.740234375 7.60703125  C 20.5670572916667 7.73567708333333  20.3619791666667 7.8  20.125 7.8  L 0.875 7.8  C 0.638020833333333 7.8  0.432942708333333 7.73567708333333  0.259765625 7.60703125  C 0.0865885416666667 7.47838541666667  0 7.32604166666667  0 7.15  L 0 5.85  C 0 5.67395833333333  0.0865885416666667 5.52161458333333  0.259765625 5.39296875  C 0.432942708333333 5.26432291666667  0.638020833333333 5.2  0.875 5.2  L 20.125 5.2  C 20.3619791666667 5.2  20.5670572916667 5.26432291666667  20.740234375 5.39296875  Z M 20.740234375 0.192968750000001  C 20.9134114583333 0.321614583333332  21 0.473958333333332  21 0.650000000000001  L 21 1.95  C 21 2.12604166666667  20.9134114583333 2.27838541666667  20.740234375 2.40703125  C 20.5670572916667 2.53567708333333  20.3619791666667 2.6  20.125 2.6  L 0.875 2.6  C 0.638020833333333 2.6  0.432942708333333 2.53567708333333  0.259765625 2.40703125  C 0.0865885416666667 2.27838541666667  0 2.12604166666667  0 1.95  L 0 0.650000000000001  C 0 0.473958333333332  0.0865885416666667 0.321614583333332  0.259765625 0.192968750000001  C 0.432942708333333 0.0643229166666659  0.638020833333333 0  0.875 0  L 20.125 0  C 20.3619791666667 0  20.5670572916667 0.0643229166666659  20.740234375 0.192968750000001  Z " fill-rule="nonzero" fill="#ffffff" stroke="none" transform="matrix(1 0 0 1 14 23 )" />
  </g>
</svg>